<?xml version="1.0" encoding="UTF-8"?>
<svg width="24px" height="24px" viewBox="0 0 24 24" version="1.1" xmlns="http://www.w3.org/2000/svg">
    <g stroke="none" stroke-width="1" fill="none" fill-rule="evenodd">
        <path d="M18.571,4 C19.142,4 19.557,4.23 19.815,4.689 C20.073,5.148 20.073,5.622 19.815,6.111 L16,12 L19.815,17.889 C20.073,18.377 20.073,18.852 19.815,19.311 C19.557,19.77 19.142,20 18.571,20 L5.429,20 C4.857,20 4.443,19.77 4.185,19.311 C3.927,18.852 3.927,18.377 4.185,17.889 L8,12 L4.185,6.111 C3.927,5.622 3.927,5.148 4.185,4.689 C4.443,4.23 4.857,4 5.429,4 L18.571,4 Z" fill="#555555"></path>
        <line x1="4" y1="4" x2="20" y2="20" stroke="#E92A09" stroke-width="2.5" stroke-linecap="round"></line>
    </g>
</svg>